# xmcd
#
# Track frame offsets: 
#        150
#        10860
#        20982
#        37347
#        50635
#        72842
#        89263
#        109704
#        123383
#        139636
#        151377
#        157904
#        177396
#        197642
#        212621
#        226140
#        238571
#        253402
#        281328
#        301857
#
# Disc length: 4236 seconds
#
# Revision: 0
# Processed by: cddbd v1.5.2PL0 Copyright (c) Steve Scherf et al.
# Submitted via: ExactAudioCopy v1.1
#
DISCID=15108a14
DTITLE=Herman Van Veen - 100 - CD 4
DYEAR=2009
DGENRE=Cabaret
TTITLE0=Ding
TTITLE1=De Exenman (1998)
TTITLE2=Twee Reizigers
TTITLE3=Oudje (Voor Bertus Leerkes)
TTITLE4=Sarah (2006)
TTITLE5=Herman Van Veen and The Rosenberg Trio - Maarten Maarten
TTITLE6=Herman Van Veen Met Stochelo Rosenberg and Nonnie Rosenberg - Is
TTITLE6=Dit Alles
TTITLE7=De Voetbalmatch
TTITLE8=Herman Van Veen and Lex Bolderdijk - Polderblues
TTITLE9=Niet Alleen (2006)
TTITLE10=Zo Lang
TTITLE11=Herman Van Veen and Metropole Orkest - Sammy
TTITLE12=Herman Van Veen and The Rosenberg Trio - Wiegeliedje
TTITLE13=Golèm
TTITLE14=Herman Van Veen and Freek De Jonge - Staakt Makkers Staakt
TTITLE15=Boem Boem (Uitvluchten)
TTITLE16=Herman Van Veen and The Rosenberg Trio - Als Ik De Koning Was V
TTITLE16=an Nederland
TTITLE17=Moenie Weggaan Nie
TTITLE18=Rivierenbuurt
TTITLE19=In Mijn Gedachten
EXTD=
EXTT0=
EXTT1=
EXTT2=
EXTT3=
EXTT4=
EXTT5=
EXTT6=
EXTT7=
EXTT8=
EXTT9=
EXTT10=
EXTT11=
EXTT12=
EXTT13=
EXTT14=
EXTT15=
EXTT16=
EXTT17=
EXTT18=
EXTT19=
PLAYORDER=
